<svg width="310" height="470" viewBox="0 0 310 470" fill="none" xmlns="http://www.w3.org/2000/svg">
<rect width="310" height="470" fill="url(#paint0_linear_36_2)"/>
<path d="M36.8218 0.287109H37.0757C37.1603 0.287109 37.2767 0.403483 37.4248 0.63623V25.646C37.6576 25.8999 37.7739 26.1326 37.7739 26.3442V26.5981C37.7739 26.8097 37.6576 27.0425 37.4248 27.2964V27.8994H37.7739C45.2007 27.8994 50.1942 30.4808 52.7544 35.6436C53.3892 37.2939 53.7065 38.5 53.7065 39.2617V39.3569C53.7065 40.3937 53.1353 40.9121 51.9927 40.9121H46.8193C45.6556 40.8275 45.0737 40.362 45.0737 39.5156C44.3755 37.6113 43.5186 36.437 42.5029 35.9927C41.3392 35.1886 39.6465 34.7866 37.4248 34.7866H36.7266C33.9336 34.7866 32.0928 35.9292 31.2041 38.2144C31.0983 38.7433 31.0454 39.1242 31.0454 39.3569V39.8647C31.0454 41.7056 33.2248 43.1126 37.5835 44.0859C38.0913 44.3187 40.6515 44.9746 45.2642 46.0537C47.5916 46.6885 49.5382 47.6724 51.104 49.0054C53.8123 51.1213 55.1665 53.9036 55.1665 57.3525C55.1665 62.3672 52.7544 66.07 47.9302 68.4609C45.2853 69.7305 42.0374 70.3652 38.1865 70.3652C34.9492 70.3652 31.7965 69.7093 28.7285 68.3975C27.2262 67.7627 25.5547 66.4932 23.7139 64.5889C22.2327 62.5788 21.3441 60.283 21.0479 57.7017V57.1938C21.0479 56.4744 21.6191 56.0724 22.7617 55.9878H28.1255C29.0988 55.9878 29.6701 56.7072 29.8394 58.146C30.5799 60.1561 31.7542 61.5632 33.3623 62.3672C35.182 63.1712 36.991 63.5732 38.7896 63.5732C41.1805 63.5732 43.3387 62.875 45.2642 61.4785C46.1317 60.2513 46.5654 59.2463 46.5654 58.4634C46.5654 55.7127 43.6878 53.7661 37.9326 52.6235C33.5316 51.5656 30.0827 50.4124 27.5859 49.1641C24.0947 47.027 22.3491 43.9272 22.3491 39.8647C22.3491 36.5005 23.9255 33.5382 27.0781 30.978C28.7074 29.6662 30.8338 28.7775 33.4575 28.312C33.4575 28.2485 34.4308 28.111 36.3774 27.8994C36.3774 27.9417 36.4092 27.9629 36.4727 27.9629V27.4551C36.0283 27.4551 35.7638 27.1165 35.6792 26.4395C35.8062 25.847 36.0072 25.5508 36.2822 25.5508C36.2822 24.3447 35.8273 23.255 34.9175 22.2817C34.8328 22.5145 34.6318 22.6309 34.3145 22.6309H33.8066C33.3411 22.377 33.1084 22.0596 33.1084 21.6787V21.52C33.1084 21.0334 33.4258 20.716 34.0605 20.5679H34.2192C34.7482 20.5679 35.0973 20.9382 35.2666 21.6787C35.584 21.6787 35.9543 22.1654 36.3774 23.1387H36.4727V0.63623C36.4727 0.551595 36.589 0.435221 36.8218 0.287109ZM35.5205 31.1685C35.5205 31.9937 36.0389 32.4803 37.0757 32.6284C37.9432 32.438 38.377 31.9196 38.377 31.0732C38.1442 30.2692 37.8268 29.8672 37.4248 29.8672V30.3115C37.4248 30.3962 37.3084 30.5125 37.0757 30.6606H36.8218C36.7371 30.6606 36.6208 30.5443 36.4727 30.3115V29.8672H36.3774C35.8062 30.1846 35.5205 30.6183 35.5205 31.1685ZM75.8599 0.731445H76.082C76.1455 0.731445 76.2407 0.82666 76.3677 1.01709V39.3252H76.4629C76.4629 39.029 76.7803 38.5952 77.415 38.0239C77.5632 37.4315 77.87 37.1353 78.3354 37.1353H78.3989C78.9067 37.1353 79.2135 37.4632 79.3193 38.1191C79.1501 38.6693 78.875 38.9443 78.4941 38.9443H78.2402C78.071 38.9443 77.8805 38.8385 77.6689 38.627C76.9072 39.4733 76.5264 40.3514 76.5264 41.2612V41.4199C76.8226 41.7161 76.9707 41.9701 76.9707 42.1816V42.4038C76.9707 42.7424 76.7697 42.9963 76.3677 43.1655L77.5737 42.7847H77.8911C78.4836 42.7847 78.9596 43.6099 79.3193 45.2603C83.6357 58.8442 85.7939 65.8161 85.7939 66.1758V66.3345C85.7939 66.9692 84.736 67.5194 82.6201 67.9849C81.6045 68.3869 80.8534 68.5879 80.3667 68.5879C80.0282 68.5667 79.5309 68.0166 78.875 66.9375C78.6634 66.8317 78.5153 66.7788 78.4307 66.7788C78.0498 67.1385 77.4891 67.9214 76.7485 69.1274C74.4634 71.4338 71.6069 72.5869 68.1792 72.5869H67.8618C65.4497 72.5869 63.4185 71.2327 61.7681 68.5244C60.964 67.0645 59.3348 62.1662 56.8804 53.8296C56.1821 51.7983 55.833 50.624 55.833 50.3066C55.833 49.5872 56.7111 49.0583 58.4673 48.7197C60.0965 48.1273 61.1545 47.8311 61.6411 47.8311C62.2759 47.8311 62.953 49.3122 63.6724 52.2744C65.7671 59.0664 67.1636 63.1289 67.8618 64.4619C68.7928 65.668 69.8719 66.271 71.0991 66.271H71.4165C73.1727 66.271 74.6538 65.4352 75.8599 63.7637C76.2619 63.0231 76.4629 62.3037 76.4629 61.6055V61.0024C76.4629 59.5636 75.1828 54.9933 72.6226 47.2915L72.083 45.3237C72.083 44.6043 72.813 44.0859 74.2729 43.7686L75.5425 43.0703C75.2886 42.8164 75.1616 42.5942 75.1616 42.4038V42.2451C75.1616 42.0335 75.2886 41.7796 75.5425 41.4834V1.01709C75.5425 0.953613 75.6483 0.858398 75.8599 0.731445ZM74.7173 46.4028C74.7173 47.1222 75.1722 47.5454 76.082 47.6724C76.8226 47.5031 77.1929 47.0482 77.1929 46.3076C77.0024 45.6094 76.7274 45.2603 76.3677 45.2603V45.6411C76.3677 45.7257 76.2725 45.821 76.082 45.9268H75.8599C75.7752 45.9268 75.6694 45.8315 75.5425 45.6411V45.2603H75.479C74.9712 45.5353 74.7173 45.9162 74.7173 46.4028ZM104.71 0.731445H104.964C105.049 0.731445 105.154 0.83724 105.281 1.04883V35.7705H105.376C105.376 35.4531 105.736 34.9771 106.456 34.3423C106.625 33.6864 106.963 33.3584 107.471 33.3584H107.535C108.106 33.3584 108.444 33.7181 108.55 34.4375C108.381 35.0511 108.074 35.3579 107.63 35.3579H107.376C107.186 35.3579 106.963 35.2415 106.709 35.0088C105.884 35.9398 105.472 36.9131 105.472 37.9287V38.0874C105.789 38.4259 105.948 38.7116 105.948 38.9443V39.1982C105.948 39.5579 105.726 39.833 105.281 40.0234V40.6899C106.805 40.6899 108.815 41.5786 111.312 43.356C113.237 45.2814 114.57 47.228 115.311 49.1958C116.242 52.0734 116.707 54.4326 116.707 56.2734C116.665 56.6331 116.644 57.0246 116.644 57.4478C116.644 57.5747 116.665 57.6911 116.707 57.7969C116.707 59.7858 116.041 62.145 114.708 64.8745C112.338 68.5985 108.836 70.4604 104.202 70.4604C102.298 70.4604 100.245 69.7939 98.0449 68.4609C97.9391 68.3975 97.8016 68.3657 97.6323 68.3657C97.3573 68.6831 97.2197 68.8841 97.2197 68.9688C97.2197 69.0111 97.2409 69.0322 97.2832 69.0322L97.2197 69.6353V69.6987L99.3145 81.791C99.3145 82.8278 98.1825 83.3462 95.9185 83.3462C94.6489 83.5789 93.6968 83.6953 93.062 83.6953H92.9985C92.1733 83.6953 91.6973 83.1134 91.5703 81.9497L86.1113 44.689C86.1113 43.8003 87.0317 43.3031 88.8726 43.1973C89.1265 43.1973 90.2373 43.0597 92.2051 42.7847C92.8398 42.7847 93.3688 43.4194 93.792 44.689L94.2046 44.7842C94.5431 44.7842 95.125 44.3081 95.9502 43.356C97.9391 41.7479 99.7165 40.9438 101.282 40.9438C101.282 40.7746 102.086 40.6582 103.694 40.5947H104.393V39.9282C104.096 39.6532 103.948 39.4098 103.948 39.1982V39.0078C103.948 38.7751 104.096 38.5 104.393 38.1826V1.04883C104.393 0.964193 104.498 0.858398 104.71 0.731445ZM103.472 43.6099C103.472 44.4139 103.969 44.89 104.964 45.0381C105.789 44.8477 106.202 44.3398 106.202 43.5146C105.99 42.7529 105.683 42.3721 105.281 42.3721V42.7847C105.281 42.8693 105.175 42.9751 104.964 43.1021H104.71C104.625 43.1021 104.52 42.9963 104.393 42.7847V42.3721H104.297C103.747 42.6683 103.472 43.0809 103.472 43.6099ZM95.125 54.9404C95.125 58.6009 96.2041 61.4997 98.3623 63.6367C99.7588 64.5254 100.87 64.9697 101.695 64.9697C104.953 64.9697 107.101 63.7425 108.138 61.2881C108.624 60.3148 108.868 58.95 108.868 57.1938C108.762 52.2004 107.27 48.9207 104.393 47.355C103.525 46.9741 102.626 46.7837 101.695 46.7837C98.394 46.7837 96.3099 48.4235 95.4424 51.7031C95.2308 52.5283 95.125 53.6074 95.125 54.9404ZM132.798 0.63623H133.052C133.137 0.63623 133.253 0.752604 133.401 0.985352V34.6914C133.825 34.374 134.227 33.8662 134.607 33.168C134.798 32.9987 134.988 32.9141 135.179 32.9141H135.369C135.983 32.9987 136.29 33.3055 136.29 33.8345V34.2788C136.057 34.7231 135.782 34.9453 135.464 34.9453H135.179C134.988 34.9453 134.734 34.8289 134.417 34.5962C133.74 35.4849 133.401 36.2043 133.401 36.7544V37.9604C133.634 38.1932 133.75 38.4154 133.75 38.627V38.8809C133.75 39.0924 133.634 39.3252 133.401 39.5791V40.1821C135.327 40.1821 137.549 40.9544 140.066 42.499C142.33 44.4033 143.907 46.3076 144.795 48.2119C145.324 48.9313 145.864 50.4442 146.414 52.7505V52.9409C146.414 53.7661 144.817 54.4749 141.622 55.0674C133.01 57.3525 128.217 58.6644 127.244 59.0029C126.948 59.3203 126.8 59.6694 126.8 60.0503V60.3042C127.435 62.0815 128.429 63.3617 129.783 64.1445C130.693 64.61 131.444 64.8428 132.037 64.8428H132.608C135.972 64.8428 138.427 63.4463 139.971 60.6533C140.479 59.3415 141.315 58.6855 142.479 58.6855C143.727 58.2835 144.838 57.9979 145.811 57.8286C146.552 57.8286 146.922 58.1989 146.922 58.9395C146.922 60.6322 146.181 62.6846 144.7 65.0967C142.944 67.4665 140.458 69.1169 137.242 70.0479C135.507 70.6826 133.592 71 131.497 71C129.318 70.7884 127.636 70.4181 126.451 69.8892C123.298 68.4292 120.992 66.1758 119.532 63.1289C118.22 60.6322 117.564 57.8286 117.564 54.7183V54.4644C117.564 54.3374 117.532 54.2316 117.469 54.147C117.723 51.2905 118.611 48.7197 120.135 46.4346C121.997 43.7262 124.673 41.8431 128.165 40.7852C129.773 40.3197 131.201 40.0869 132.449 40.0869V39.7378C132.068 39.7378 131.814 39.4521 131.688 38.8809V38.7222C131.814 38.0874 132.068 37.77 132.449 37.77V0.985352C132.449 0.900716 132.566 0.784342 132.798 0.63623ZM131.497 43.4194C131.497 44.2446 132.015 44.7313 133.052 44.8794C133.899 44.7101 134.322 44.2023 134.322 43.356C134.11 42.5519 133.803 42.1499 133.401 42.1499V42.5625C133.401 42.6683 133.285 42.7847 133.052 42.9116H132.798C132.714 42.9116 132.597 42.7952 132.449 42.5625V42.1499H132.354C131.783 42.4673 131.497 42.8905 131.497 43.4194ZM124.927 52.4966C124.927 53.1102 125.181 53.5651 125.689 53.8613H126.102C126.821 53.8613 130.333 52.9515 136.639 51.1318C136.935 50.8356 137.083 50.5817 137.083 50.3701V50.1162C137.083 49.2487 136.194 48.1908 134.417 46.9424C133.571 46.4769 132.714 46.2441 131.846 46.2441C129.096 46.2441 126.99 47.4502 125.53 49.8623C125.128 50.8991 124.927 51.7772 124.927 52.4966ZM152.825 0.509277H153.079C153.185 0.509277 153.301 0.625651 153.428 0.858398V34.374H153.523C153.523 34.0355 153.894 33.5488 154.634 32.9141C154.804 32.2158 155.153 31.8667 155.682 31.8667H155.777C156.348 31.8667 156.687 32.237 156.792 32.9775C156.623 33.6123 156.306 33.9297 155.84 33.9297H155.586C155.375 33.9297 155.142 33.8133 154.888 33.5806C154.042 34.5327 153.619 35.5378 153.619 36.5957V36.7861C153.957 37.1247 154.126 37.4103 154.126 37.6431V37.897C154.126 38.2778 153.894 38.5635 153.428 38.7539V38.9443C155.798 39.0924 156.983 39.3781 156.983 39.8013C157.089 40.161 157.142 40.4149 157.142 40.563V41.769C157.142 42.4461 157.311 42.8799 157.649 43.0703C157.967 43.0492 158.517 42.6471 159.3 41.8643C161.395 40.1927 163.51 39.3569 165.647 39.3569H166.346C167.785 39.3569 168.504 39.96 168.504 41.166C168.292 44.8477 167.975 46.6885 167.552 46.6885C167.34 46.7943 167.107 46.8472 166.854 46.8472H166.441C166.187 46.8472 165.552 46.7943 164.537 46.6885C161.151 46.6885 158.887 47.8945 157.745 50.3066C157.004 51.0049 156.454 53.3535 156.094 57.3525C155.608 64.5889 155.153 68.207 154.729 68.207C154.306 68.3763 153.957 68.4609 153.682 68.4609C149.45 68.3128 147.334 67.8579 147.334 67.0962L147.239 66.5566C148.742 49.0794 149.577 40.0763 149.747 39.5474C150.043 39.0184 150.582 38.7539 151.365 38.7539C151.852 38.8174 152.222 38.8491 152.476 38.8491V38.6587C152.201 38.3625 152.063 38.1086 152.063 37.897V37.7383C152.063 37.4844 152.201 37.1882 152.476 36.8496V0.858398C152.476 0.773763 152.592 0.657389 152.825 0.509277ZM151.556 42.4673C151.556 43.2925 152.063 43.7791 153.079 43.9272C153.947 43.7368 154.38 43.2184 154.38 42.3721C154.169 41.568 153.851 41.166 153.428 41.166V41.6104C153.428 41.695 153.312 41.8114 153.079 41.9595H152.825C152.741 41.9595 152.624 41.8431 152.476 41.6104V41.166H152.413C151.841 41.4834 151.556 41.9172 151.556 42.4673ZM199.576 0.287109H199.83C199.914 0.287109 200.031 0.403483 200.179 0.63623V25.646C200.411 25.8999 200.528 26.1326 200.528 26.3442V26.5981C200.528 26.8097 200.411 27.0425 200.179 27.2964V27.8994H200.528C207.955 27.8994 212.948 30.4808 215.508 35.6436C216.143 37.2939 216.46 38.5 216.46 39.2617V39.3569C216.46 40.3937 215.889 40.9121 214.747 40.9121H209.573C208.41 40.8275 207.828 40.362 207.828 39.5156C207.129 37.6113 206.272 36.437 205.257 35.9927C204.093 35.1886 202.4 34.7866 200.179 34.7866H199.48C196.688 34.7866 194.847 35.9292 193.958 38.2144C193.852 38.7433 193.799 39.1242 193.799 39.3569V39.8647C193.799 41.7056 195.979 43.1126 200.337 44.0859C200.845 44.3187 203.405 44.9746 208.018 46.0537C210.346 46.6885 212.292 47.6724 213.858 49.0054C216.566 51.1213 217.92 53.9036 217.92 57.3525C217.92 62.3672 215.508 66.07 210.684 68.4609C208.039 69.7305 204.791 70.3652 200.94 70.3652C197.703 70.3652 194.55 69.7093 191.482 68.3975C189.98 67.7627 188.309 66.4932 186.468 64.5889C184.987 62.5788 184.098 60.283 183.802 57.7017V57.1938C183.802 56.4744 184.373 56.0724 185.516 55.9878H190.879C191.853 55.9878 192.424 56.7072 192.593 58.146C193.334 60.1561 194.508 61.5632 196.116 62.3672C197.936 63.1712 199.745 63.5732 201.543 63.5732C203.934 63.5732 206.093 62.875 208.018 61.4785C208.886 60.2513 209.319 59.2463 209.319 58.4634C209.319 55.7127 206.442 53.7661 200.687 52.6235C196.285 51.5656 192.837 50.4124 190.34 49.1641C186.849 47.027 185.103 43.9272 185.103 39.8647C185.103 36.5005 186.679 33.5382 189.832 30.978C191.461 29.6662 193.588 28.7775 196.211 28.312C196.211 28.2485 197.185 28.111 199.131 27.8994C199.131 27.9417 199.163 27.9629 199.227 27.9629V27.4551C198.782 27.4551 198.518 27.1165 198.433 26.4395C198.56 25.847 198.761 25.5508 199.036 25.5508C199.036 24.3447 198.581 23.255 197.671 22.2817C197.587 22.5145 197.386 22.6309 197.068 22.6309H196.561C196.095 22.377 195.862 22.0596 195.862 21.6787V21.52C195.862 21.0334 196.18 20.716 196.814 20.5679H196.973C197.502 20.5679 197.851 20.9382 198.021 21.6787C198.338 21.6787 198.708 22.1654 199.131 23.1387H199.227V0.63623C199.227 0.551595 199.343 0.435221 199.576 0.287109ZM198.274 31.1685C198.274 31.9937 198.793 32.4803 199.83 32.6284C200.697 32.438 201.131 31.9196 201.131 31.0732C200.898 30.2692 200.581 29.8672 200.179 29.8672V30.3115C200.179 30.3962 200.062 30.5125 199.83 30.6606H199.576C199.491 30.6606 199.375 30.5443 199.227 30.3115V29.8672H199.131C198.56 30.1846 198.274 30.6183 198.274 31.1685ZM238.201 0.667969H238.423C238.508 0.667969 238.624 0.773763 238.772 0.985352V39.2935C238.984 39.5262 239.09 39.7484 239.09 39.96V40.2139C239.09 40.4043 238.984 40.6159 238.772 40.8486V40.9438C240.423 41.4093 241.766 42.5308 242.803 44.3081C243.396 46.1912 244.633 52.0417 246.517 61.8594C247.384 64.4196 247.818 65.7949 247.818 65.9854C247.818 66.6201 246.421 67.1068 243.628 67.4453C243.099 67.6781 242.444 67.7944 241.661 67.7944C241.237 67.7944 240.603 67.3818 239.756 66.5566H239.185C236.075 69.5189 232.361 71 228.045 71H227.569C225.749 71 223.993 70.2594 222.3 68.7783C220.713 66.7682 219.92 64.7687 219.92 62.7798C219.92 58.548 222.829 55.6069 228.648 53.9565C230.785 53.2371 232.679 52.5177 234.329 51.7983C235.472 50.9943 236.043 50.2326 236.043 49.5132C236.043 47.7782 235.302 46.5933 233.821 45.9585C233.335 45.8527 232.975 45.7998 232.742 45.7998H232.012C230.298 45.7998 228.764 46.3182 227.41 47.355C226.733 47.884 226.236 49.016 225.918 50.751C225.918 51.2165 223.803 51.7666 219.571 52.4014C219.021 52.4014 218.693 52.0099 218.587 51.2271C218.587 47.2915 220.703 44.361 224.935 42.4355C228.299 40.9967 231.621 40.2773 234.9 40.2773C235.26 40.2773 236.022 40.3302 237.186 40.436L237.122 40.2773V40.0234C237.228 39.4733 237.418 39.1982 237.693 39.1982C237.693 38.0768 237.249 37.04 236.36 36.0879C236.149 36.2995 235.937 36.4053 235.726 36.4053H235.472C235.049 36.4053 234.742 36.109 234.551 35.5166C234.678 34.7972 235.017 34.4375 235.567 34.4375H235.63C236.096 34.4375 236.477 34.8184 236.773 35.5801C237.26 35.8975 237.598 36.3418 237.789 36.9131H237.852V0.985352C237.852 0.900716 237.968 0.794922 238.201 0.667969ZM236.963 44.562C236.963 45.366 237.45 45.8315 238.423 45.9585C239.249 45.7892 239.661 45.3026 239.661 44.4985C239.45 43.7157 239.153 43.3242 238.772 43.3242V43.7368C238.772 43.8215 238.656 43.9378 238.423 44.0859H238.201C238.095 44.0859 237.979 43.9696 237.852 43.7368V43.3242H237.789C237.238 43.6416 236.963 44.0542 236.963 44.562ZM227.569 61.2881V61.7642C227.823 64.0705 228.807 65.2236 230.521 65.2236C230.521 65.2871 230.774 65.3188 231.282 65.3188H232.107C233.737 65.3188 235.355 64.5783 236.963 63.0972C237.662 61.8911 238.011 60.7909 238.011 59.7964C238.011 58.019 237.736 56.6755 237.186 55.7656C236.974 55.6598 236.784 55.6069 236.614 55.6069C233.06 56.8553 230.595 57.8709 229.219 58.6538C228.119 59.6694 227.569 60.5475 227.569 61.2881ZM251.785 0.82666H252.039C252.124 0.82666 252.24 0.943034 252.388 1.17578V24.1543C252.811 23.8369 253.213 23.3291 253.594 22.6309C253.806 22.4404 254.007 22.3452 254.197 22.3452H254.356C254.991 22.451 255.308 22.7684 255.308 23.2974V23.7417C255.075 24.2072 254.79 24.4399 254.451 24.4399H254.197C253.986 24.4399 253.732 24.3236 253.436 24.0908C252.737 24.9583 252.388 25.6777 252.388 26.249V27.4551C252.621 27.6878 252.737 27.91 252.737 28.1216V28.3755C252.737 28.5871 252.621 28.8198 252.388 29.0737V29.9307H252.483C254.832 29.9307 256.006 30.1951 256.006 30.7241C256.112 31.1473 256.165 31.5493 256.165 31.9302L256.292 68.7466C256.461 72.8091 255.911 74.5864 254.642 74.0786V74.1738L253.594 74.0786H250.674C249.003 74.0786 248.167 73.6237 248.167 72.7139V31.4858C248.167 30.4491 248.939 29.9307 250.484 29.9307H251.436V29.2642C251.055 29.2642 250.801 28.9679 250.674 28.3755V28.2168C250.801 27.582 251.055 27.2646 251.436 27.2646V1.17578C251.436 1.09115 251.552 0.974772 251.785 0.82666ZM250.484 32.9458C250.484 33.771 251.002 34.2576 252.039 34.4058C252.907 34.2365 253.34 33.7287 253.34 32.8823C253.108 32.0783 252.79 31.6763 252.388 31.6763V32.0889C252.388 32.1735 252.272 32.2899 252.039 32.438H251.785C251.701 32.438 251.584 32.3216 251.436 32.0889V31.6763H251.341C250.77 31.9937 250.484 32.4168 250.484 32.9458ZM273.018 0.63623H273.272C273.357 0.63623 273.473 0.752604 273.621 0.985352V34.6914C274.044 34.374 274.446 33.8662 274.827 33.168C275.018 32.9987 275.208 32.9141 275.398 32.9141H275.589C276.202 32.9987 276.509 33.3055 276.509 33.8345V34.2788C276.277 34.7231 276.001 34.9453 275.684 34.9453H275.398C275.208 34.9453 274.954 34.8289 274.637 34.5962C273.96 35.4849 273.621 36.2043 273.621 36.7544V37.9604C273.854 38.1932 273.97 38.4154 273.97 38.627V38.8809C273.97 39.0924 273.854 39.3252 273.621 39.5791V40.1821C275.547 40.1821 277.768 40.9544 280.286 42.499C282.55 44.4033 284.126 46.3076 285.015 48.2119C285.544 48.9313 286.084 50.4442 286.634 52.7505V52.9409C286.634 53.7661 285.036 54.4749 281.841 55.0674C273.23 57.3525 268.437 58.6644 267.464 59.0029C267.168 59.3203 267.02 59.6694 267.02 60.0503V60.3042C267.654 62.0815 268.649 63.3617 270.003 64.1445C270.913 64.61 271.664 64.8428 272.256 64.8428H272.828C276.192 64.8428 278.646 63.4463 280.191 60.6533C280.699 59.3415 281.535 58.6855 282.698 58.6855C283.947 58.2835 285.057 57.9979 286.031 57.8286C286.771 57.8286 287.142 58.1989 287.142 58.9395C287.142 60.6322 286.401 62.6846 284.92 65.0967C283.164 67.4665 280.678 69.1169 277.461 70.0479C275.726 70.6826 273.812 71 271.717 71C269.537 70.7884 267.855 70.4181 266.67 69.8892C263.518 68.4292 261.211 66.1758 259.751 63.1289C258.44 60.6322 257.784 57.8286 257.784 54.7183V54.4644C257.784 54.3374 257.752 54.2316 257.688 54.147C257.942 51.2905 258.831 48.7197 260.354 46.4346C262.216 43.7262 264.893 41.8431 268.384 40.7852C269.992 40.3197 271.421 40.0869 272.669 40.0869V39.7378C272.288 39.7378 272.034 39.4521 271.907 38.8809V38.7222C272.034 38.0874 272.288 37.77 272.669 37.77V0.985352C272.669 0.900716 272.785 0.784342 273.018 0.63623ZM271.717 43.4194C271.717 44.2446 272.235 44.7313 273.272 44.8794C274.118 44.7101 274.542 44.2023 274.542 43.356C274.33 42.5519 274.023 42.1499 273.621 42.1499V42.5625C273.621 42.6683 273.505 42.7847 273.272 42.9116H273.018C272.933 42.9116 272.817 42.7952 272.669 42.5625V42.1499H272.574C272.002 42.4673 271.717 42.8905 271.717 43.4194ZM265.147 52.4966C265.147 53.1102 265.401 53.5651 265.909 53.8613H266.321C267.041 53.8613 270.553 52.9515 276.858 51.1318C277.155 50.8356 277.303 50.5817 277.303 50.3701V50.1162C277.303 49.2487 276.414 48.1908 274.637 46.9424C273.79 46.4769 272.933 46.2441 272.066 46.2441C269.315 46.2441 267.21 47.4502 265.75 49.8623C265.348 50.8991 265.147 51.7772 265.147 52.4966Z" fill="#46A358"/>
<rect opacity="0.2" x="17" y="300" width="20" height="20" rx="6" stroke="url(#paint1_linear_36_2)" stroke-width="2"/>
<rect x="248" y="343" width="45" height="45" rx="22.5" fill="url(#paint2_linear_36_2)" fill-opacity="0.3"/>
<rect x="38" y="105" width="15" height="15" rx="7.5" fill="url(#paint3_linear_36_2)" fill-opacity="0.3"/>
<defs>
<linearGradient id="paint0_linear_36_2" x1="155" y1="0" x2="155" y2="470" gradientUnits="userSpaceOnUse">
<stop stop-color="#46A358" stop-opacity="0.1"/>
<stop offset="1" stop-color="#46A358" stop-opacity="0.03"/>
</linearGradient>
<linearGradient id="paint1_linear_36_2" x1="2" y1="286" x2="38" y2="330" gradientUnits="userSpaceOnUse">
<stop stop-color="#46A358"/>
<stop offset="1" stop-color="#46A358" stop-opacity="0"/>
</linearGradient>
<linearGradient id="paint2_linear_36_2" x1="232" y1="319" x2="285" y2="396" gradientUnits="userSpaceOnUse">
<stop stop-color="#46A358"/>
<stop offset="1" stop-color="#46A358" stop-opacity="0"/>
</linearGradient>
<linearGradient id="paint3_linear_36_2" x1="32.6667" y1="97" x2="50.3333" y2="122.667" gradientUnits="userSpaceOnUse">
<stop stop-color="#46A358"/>
<stop offset="1" stop-color="#46A358" stop-opacity="0"/>
</linearGradient>
</defs>
</svg>
